. 
  
http://www.torrenting.com/        :     Greatest Movie Tracker on The Net!!!
 
http://www.Torrenting.com          :     Once & For all ;)


               www . Torrenting . Com 

(((((((((((((= Enjoy No RAR releases =))))))))))))))))))))


...................................NFO:....................................

.      *********** ****    ****      ***      ******** *********** ****    *** **********
           *+*     +*+*+* *+*+*+   *+* *+*   *+*    *+*    *+*     *+*+*   *+* *+*        
           +*+     +*+ +*+*+ +*+  +*+   +*+  +*+           +*+     *+*+*+  +*+ +*+        
           +$+     +$+  +*+  +$+ +$++*++$++* *$*           +$+     +$+ +*+ +$+ +$++*++$  
           +$+     +$+       +$+ +$+     +$+ +$+   +$+$    +$+     +$+  +$+$+$ +$+        
           $+$     $+$       $+$ $+$     $+$ $+$    $+$    $+$     $+$   $+$+$ $+$        
       $$$$$$$$$$$ $$$       $$$ $$$     $$$  $$$$$$$$ $$$$$$$$$$$ $$$    $$$$ $$$$$$$$$$     
                                                



                           Another Fine Release Brought to you from - IMAGiNE                   
                                                 

********************************************************************************************************************                                
                               Super 8 2011 720p TS READNFO XViD - IMAGiNE
********************************************************************************************************************

Ripper ...........: IMAGiNE                                      IMDB Rating.......: 8.1/10                             
Video Codec.......: XVID                                         Release Date......: 13/06/11
Audio Codec.......: MP3                                          Theatre Date......: 10/06/11
Audio Bitrate.....: 128                                          Runtime.......: 1h 41mn
Subtitles.........: NIL                                          Language..........: ENGLISH
Resolution......: 1280 x 544                                     IMDb URL..........: http://www.imdb.com/title/tt1650062/


[color=yellow]DETAILS:[/color]

Video
ID                               : 0
Format                           : MPEG-4 Visual
Format profile                   : Advanced Simple@L5
Format settings, BVOP            : 2
Format settings, QPel            : No
Format settings, GMC             : No warppoints
Format settings, Matrix          : Default (MPEG)
Muxing mode                      : Packed bitstream
Codec ID                         : XVID
Codec ID/Hint                    : XviD
Duration                         : 1h 41mn
Bit rate                         : 3 190 Kbps
Width                            : 1 280 pixels
Height                           : 544 pixels
Display aspect ratio             : 2.35:1
Frame rate                       : 23.976 fps
Color space                      : YUV
Chroma subsampling               : 4:2:0
Bit depth                        : 8 bits
Scan type                        : Progressive
Compression mode                 : Lossy
Bits/(Pixel*Frame)               : 0.191
Stream size                      : 2.27 GiB (96%)
Writing library                  : XviD 61

Audio
ID                               : 1
Format                           : MPEG Audio
Format version                   : Version 2
Format profile                   : Layer 3
Mode                             : Joint stereo
Mode extension                   : MS Stereo
Codec ID                         : 55
Codec ID/Hint                    : MP3
Duration                         : 1h 41mn
Bit rate mode                    : Constant
Bit rate                         : 128 Kbps
Channel(s)                       : 2 channels
Sampling rate                    : 44.1 KHz
Compression mode                 : Lossy
Stream size                      : 93.3 MiB (4%)
Alignment                        : Split accross interleaves
Interleave, duration             : 42 ms (1.00 video frame)
Writing library                  : LAME3.98r


[color=yellow]SOURCES:[/color]

VIDEO: .................. EP1C Thanx Mate :D
AUDIO: .................. Thanx Mate :P

[color=yellow]NOTES:[/color]

IMAGiNE bringing you another release..........
Super 8 720P TS.........
Ok here we are with ANOTHER 720P TS.......
The source files were very nice, 
thanks to EP1C for supplying us with those............
So first off we made a script to crop rotate and resize,
Adjusted the white levels, RGB and sharpened it up abit.......
Now there is a 55 second chunk missing from 48:49 to 50:44 
nothing major but does seem to jump a scene so........
Audio is LiNE we filtered synced and remuxed to our encode :P
Enjoy Folks!


[color=yellow]SCREENS:[/color]


[color=yellow]GREETS:[/color]

FLAWL3SS,ViSiON,FUSiON,Rx,SecretMyth,BirdFlu,ELEKTRI4KA,SERENiTY and Autotron
And to all the other p2p grps past and present 


[COLOR=RED]Looking for these,syncers,cammers,silver supplier,Audio.....Have anything to offer????......
Contact us imaginegroup@hushmail.com[/COLOR]